PathFileType	4	(X/Y/Z)	G:\TennisProject\Miami_Dimitrov_Sinner_masked_Sports2D\Miami_Dimitrov_Sinner_masked_Sports2D_px_person03.trc
DataRate	CameraRate	NumFrames	NumMarkers	Units	OrigDataRate	OrigDataStartFrame	OrigNumFrames
25	25	8	22	m	25	374	499
Frame#	Time	Hip			RHip			RKnee			RAnkle			RBigToe			RSmallToe			RHeel			LHip			LKnee			LAnkle			LBigToe			LSmallToe			LHeel			Neck			Head			Nose			RShoulder			RElbow			RWrist			LShoulder			LElbow			LWrist		
		X1	Y1	Z1	X2	Y2	Z2	X3	Y3	Z3	X4	Y4	Z4	X5	Y5	Z5	X6	Y6	Z6	X7	Y7	Z7	X8	Y8	Z8	X9	Y9	Z9	X10	Y10	Z10	X11	Y11	Z11	X12	Y12	Z12	X13	Y13	Z13	X14	Y14	Z14	X15	Y15	Z15	X16	Y16	Z16	X17	Y17	Z17	X18	Y18	Z18	X19	Y19	Z19	X20	Y20	Z20	X21	Y21	Z21	X22	Y22	Z22
374	14.96	570.4094427707548	169.5897833412718	0.0	564.4875437997084	170.02055873034902	0.0	563.7651650680875	191.40146704949518	0.0	563.7519411185284	213.77321060510752	0.0	560.0711417103995	218.9038007215521	0.0	558.2774831752333	218.31604879007872	0.0	564.7286377703359	217.46495742191803	0.0	576.2719739533646	170.16818137593413	0.0	579.4282729835855	191.0986061587394	0.0	581.9663948052445	213.57439935371488	0.0	583.3991552324176	218.6433280103356	0.0	585.6758450069569	218.652846093711	0.0	579.8676602514915	217.54062913421473	0.0	569.8253162694405	138.91314696575515	0.0	568.7518211470358	124.91867315234299	0.0	568.4699007397949	132.78355292637445	0.0	559.6160327642003	143.98776809641524	0.0	558.4747611694439	155.81332428452728	0.0	566.7038700271121	161.1906952924175	0.0	580.2665194828455	143.48884913755012	0.0	582.6965467482522	156.31446075670428	0.0	575.7825887159936	162.18936355290816	0.0
375	15.0	570.4063070509079	169.5767186873575	0.0	564.5297995959221	170.0401341923446	0.0	563.7387642728639	191.44687434516243	0.0	563.7392943495867	213.77933671910753	0.0	560.432825392163	218.79730101743007	0.0	558.5572638752662	218.25382632080522	0.0	564.8096419531641	217.44946510176857	0.0	576.2760337123144	170.17976037244895	0.0	579.4066668783231	191.120479834509	0.0	581.9106189480453	213.49530094679534	0.0	583.4172949148065	218.3498332275701	0.0	585.6191586773737	218.25527560846353	0.0	580.1640012203222	217.26712241944065	0.0	569.7488748887807	138.9019800117401	0.0	568.8428035928241	125.02179357404944	0.0	568.5706161188092	132.86889331168283	0.0	559.7261325131713	143.96162943250494	0.0	558.5116264189967	155.9519123756764	0.0	566.8635876537658	161.00522052387512	0.0	580.2105731070394	143.4399428694855	0.0	582.5966903534637	156.32854267370215	0.0	575.2769338671505	161.9002029890778	0.0
376	15.040000000000001	570.4214559434665	169.50020521026863	0.0	564.512794895501	170.01432686390396	0.0	563.6319830435847	191.44487145276238	0.0	563.634187424464	213.7926549928	0.0	560.5716698552732	218.60312202485397	0.0	558.720975974771	218.17403713446998	0.0	564.8737878852133	217.40248041836387	0.0	576.2998993507348	170.11179406164405	0.0	579.2943287538023	191.14729196013514	0.0	581.8963320824013	213.5112861809489	0.0	583.4434773110511	218.16541750171282	0.0	585.5936083516864	217.87467863046007	0.0	580.2593083979696	217.05433219105967	0.0	569.6988204444301	138.8454269127867	0.0	568.9301494691869	125.14312329350955	0.0	568.655032954896	132.91270898747538	0.0	559.7909218063735	143.97903243575377	0.0	558.4825055729028	155.99503686025972	0.0	566.9040084719719	161.00594514474903	0.0	580.1506797483631	143.31689644373319	0.0	582.4523207658647	156.3304955885534	0.0	574.8084951773233	161.8193802603269	0.0
377	15.08	570.3907040165341	169.4770509379106	0.0	564.4014219793578	170.0216398473133	0.0	563.5305074044123	191.37509639988156	0.0	563.5299946063643	213.73164325026454	0.0	560.2648734830725	218.5893236407666	0.0	558.4386892153514	218.27960247600262	0.0	564.8052961494525	217.37712841501678	0.0	576.3298213236422	170.06947788599476	0.0	579.1903692697415	191.17605714818467	0.0	582.0478574591688	213.5472150871016	0.0	583.5190972132848	218.50576691145108	0.0	585.7365023091387	218.1749846093201	0.0	580.1292411866509	217.28885281485168	0.0	569.7176303680696	138.81231845077767	0.0	568.9203859477872	125.02496670543798	0.0	568.6414927731155	132.73416189565106	0.0	559.616759424411	143.88819948103568	0.0	558.33531004574	155.80120358520168	0.0	566.8270074450355	161.16360976880583	0.0	580.2276130060363	143.23904021962014	0.0	582.4023354669029	156.200778062418	0.0	575.2460239748355	162.12356284688423	0.0
378	15.120000000000001	570.3274874928929	169.51042844322328	0.0	564.3124619286048	170.08148321980613	0.0	563.4473305248762	191.41135640567737	0.0	563.4473368345696	213.66250084753764	0.0	560.0786582106387	218.6925625552832	0.0	558.1641732101455	218.34182505960243	0.0	564.5972029715598	217.28122829982902	0.0	576.3265616111769	170.17307151081434	0.0	579.1813277247962	191.27406738300445	0.0	582.1202116939482	213.5869350630226	0.0	583.6077567086169	218.762704039348	0.0	585.8421621050113	218.4536633346623	0.0	580.1788498721642	217.470196540502	0.0	569.664469195801	138.84657653420916	0.0	568.8109321078948	124.93176883178843	0.0	568.6140165716162	132.6447400317005	0.0	559.3886065526958	143.80646522949434	0.0	558.2389202068432	155.7362732549337	0.0	566.9006825020717	161.09128551031912	0.0	580.3091015202904	143.2772121489924	0.0	582.3910850920245	156.08585251015984	0.0	575.696629176899	162.22029669178303	0.0
379	15.16	570.2660947521797	169.48874303173667	0.0	564.3143546207962	170.10146543543573	0.0	563.3530278172267	191.52861062978485	0.0	563.3566806510165	213.71708791185708	0.0	560.3936103420784	218.7456634424426	0.0	558.3805370088006	218.20284917910018	0.0	564.4532050247176	217.1765033480681	0.0	576.2248124961448	170.29796406581184	0.0	579.1962099366414	191.39727806517038	0.0	581.9415474767238	213.65652715860742	0.0	583.5958251714211	218.5160329748757	0.0	585.7275559450258	218.11714213462852	0.0	580.4566896484534	217.22699653745914	0.0	569.5361826099804	138.90612089044808	0.0	568.7129936760535	125.07140413282629	0.0	568.6473545076626	132.84780918342955	0.0	559.3587957838838	143.9105553636893	0.0	558.2834538515228	155.92979613356323	0.0	567.0840882272233	160.72970205644413	0.0	580.2342717741695	143.37482700760012	0.0	582.3746249647938	156.14266965577838	0.0	575.2356751805903	161.84188695518748	0.0
380	15.200000000000001	570.2100798522129	169.44331347118793	0.0	564.31393096126	170.08897424378557	0.0	563.3067929604863	191.53715139873034	0.0	563.3061218428704	213.7728641124591	0.0	560.792644697859	218.7894121773582	0.0	558.7314836713329	218.13884591823674	0.0	564.4634763586901	217.19508052219402	0.0	576.1097433876466	170.26761824067867	0.0	579.1411963841783	191.4367151811436	0.0	581.7344309019721	213.68715535202074	0.0	583.555449535533	218.33746409067857	0.0	585.5406424376758	217.86123377190725	0.0	580.6166445144459	217.0395546875423	0.0	569.4987962354631	138.92739034163753	0.0	568.7191236651338	125.18660058580457	0.0	568.6530032981165	133.03043797261094	0.0	559.3982662625699	143.98578948602628	0.0	558.3161713593753	156.0132823076195	0.0	567.0799061656123	160.495799833645	0.0	580.1662929529944	143.42212212288936	0.0	582.4053750888879	156.23441188941172	0.0	574.7209033614936	161.55519555203355	0.0
381	15.24	570.1674904242784	169.4763979762998	0.0	564.2260967570832	170.08449091257717	0.0	563.3954423873506	191.4352075092235	0.0	563.3737055450546	213.69366485343366	0.0	560.8279044327866	218.8404561074767	0.0	558.7036463401662	218.3122325550878	0.0	564.4860313798135	217.2677526183246	0.0	576.1109603744267	170.1497364302569	0.0	579.0635785546699	191.3960833073391	0.0	581.7032879553161	213.6320085941804	0.0	583.6224898734118	218.6156049070492	0.0	585.484865338593	218.2295328449666	0.0	580.5209352572447	217.23442672224357	0.0	569.5600895700898	138.9357513828733	0.0	568.7561149786266	125.11964532010967	0.0	568.546372373911	133.00238374051642	0.0	559.2986925359143	143.82991005214524	0.0	558.2276221307579	155.83680853342554	0.0	566.8730647800646	160.62304494190124	0.0	580.2257283913912	143.39812119636954	0.0	582.4681103289779	156.19692025415895	0.0	575.0657836517896	161.7158534992535	0.0
